<?xml version="1.0" encoding="utf-8"?>
<!-- Generator: Adobe Illustrator 15.1.0, SVG Export Plug-In . SVG Version: 6.00 Build 0)  -->
<!DOCTYPE svg PUBLIC "-//W3C//DTD SVG 1.1//EN" "http://www.w3.org/Graphics/SVG/1.1/DTD/svg11.dtd">
<svg version="1.1" id="Layer_1" xmlns="http://www.w3.org/2000/svg" xmlns:xlink="http://www.w3.org/1999/xlink" x="0px" y="0px"
	 width="345px" height="195.891px" viewBox="0 0 345 195.891" enable-background="new 0 0 345 195.891" xml:space="preserve">
<g>
	<path fill="#FFFFFF" d="M192.096,30.132c1.229-1.333,1.948-2.078,2.152-2.241c0.204-0.162,0.391-0.29,0.564-0.391
		c-0.437-0.405-0.923-0.79-1.448-1.144c-0.175,0.587-0.759,1.518-1.751,2.78c-0.604-1.482-0.902-2.675-0.902-3.555v-0.37h2.669
		c0.226,0,0.692,0.016,1.401,0.053v-1.282c-0.774,0.046-1.272,0.066-1.51,0.066h-2.561v-1.3c0-0.261,0.021-0.712,0.062-1.374h-1.495
		c0.041,0.599,0.066,1.016,0.066,1.241v1.432h-1.533l-1.636-0.066c0.013,0.568,0.013,0.992,0,1.282
		c0.885-0.037,1.441-0.053,1.667-0.053h1.502v3.705v1.701v3.518c0,0.136-0.07,0.243-0.208,0.321
		c-0.143,0.08-0.457,0.115-0.951,0.115l-0.464-0.02c0.464,0.525,0.705,1.039,0.725,1.537c0.681-0.004,1.226-0.078,1.642-0.216
		s0.623-0.334,0.623-0.587v-6.002c0.385,1.201,0.673,2.031,0.867,2.491c0.191,0.465,0.514,0.963,0.963,1.498
		c0.45,0.539,1.09,1.082,1.921,1.63c0.312-0.825,0.614-1.409,0.92-1.747C194.068,32.652,192.974,31.644,192.096,30.132"/>
	<path fill="#FFFFFF" d="M188.693,28.869c-0.423-0.724-0.901-1.479-1.435-2.276c-0.259,0.208-0.63,0.479-1.112,0.812
		c0.443,0.535,0.861,1.267,1.253,2.197C187.718,29.394,188.15,29.153,188.693,28.869"/>
	<path fill="#FFFFFF" d="M188.557,29.83c-1.084,1.348-2.141,2.506-3.333,3.471c0.564,0.416,0.988,0.805,1.269,1.167
		c0.047-0.113,0.413-0.599,1.094-1.457c0.945-1.193,1.443-1.979,1.654-2.353C189.074,30.558,188.723,30.099,188.557,29.83"/>
	<path fill="#FFFFFF" d="M194.096,23.032c-0.4-0.619-1.025-1.154-1.463-1.607c-0.245,0.222-0.611,0.459-1.092,0.718
		c0.362,0.446,0.938,1.01,1.325,1.687C193.127,23.618,193.538,23.351,194.096,23.032"/>
	<polygon fill="#FFFFFF" points="181.84,24.25 182.551,24.25 183.865,24.25 184.329,24.25 184.854,24.25 185.391,24.316 
		185.391,22.896 184.769,22.97 181.667,22.97 180.655,22.896 180.655,24.316 181.722,24.25 	"/>
	<path fill="#FFFFFF" d="M185.521,30.755c0,0-0.904,0.621-1.656,0.959v-3.047h0.592l0.86,0.066v-1.447l-0.896,0.064h-0.557v-2.508
		h-1.314v2.508h-0.798l-0.903-0.099v1.482l0.839-0.066h0.862v3.545l-2.296,1.008l0.432,1.724c1.351-0.833,3.027-1.942,5.031-2.896
		C185.66,31.749,185.592,31.334,185.521,30.755"/>
	<path fill="#FFFFFF" d="M188.407,86.052h0.014l-0.002-0.004h4.545l1.368,0.078v-1.63c-0.433,0.054-0.89,0.082-1.368,0.082h-4.454
		l0.105-2.072c0.037-0.714,0.151-1.387,0.344-2.021l-2.14-0.132c0.1,0.958,0.155,1.604,0.163,1.934l-0.049,2.292h-3.906
		c-0.247,0-0.765-0.02-1.539-0.066v1.599c0.566-0.044,1.094-0.062,1.572-0.062h3.825c-0.082,1.183-0.327,2.206-0.735,3.07
		c-0.405,0.868-0.899,1.578-1.472,2.136c-0.571,0.56-1.12,0.992-1.644,1.294c-0.523,0.293-1.241,0.665-2.162,1.099
		c0.331,0.362,0.701,0.8,1.102,1.305c3.459-1.628,5.463-3.877,6.012-6.753C187.99,88.208,188.407,86.052,188.407,86.052"/>
	<path fill="#FFFFFF" d="M191.525,91.348c-0.85-0.759-1.488-1.521-1.928-2.284c-0.31-0.543-0.545-1.018-0.714-1.436l-0.473,1.93
		c0.836,2.148,2.494,3.959,4.992,5.428c0.163-0.58,0.596-1.19,1.296-1.844C193.433,92.7,192.376,92.105,191.525,91.348"/>
	<polygon fill="#FFFFFF" points="191.995,102.407 194.197,99.305 194.693,99.668 192.858,102.193 	"/>
	<polygon fill="#FFFFFF" points="187.214,6.706 185.52,6.628 185.52,7.77 187.247,7.708 193.574,7.708 194.907,7.77 194.907,6.599 
		193.513,6.706 	"/>
	<polygon fill="#FFFFFF" points="183.527,6.883 183.527,4.233 184.222,4.233 185.376,4.311 185.376,3.034 184.255,3.097 
		181.906,3.097 180.651,3.034 180.651,4.311 181.906,4.233 182.315,4.233 182.315,6.883 	"/>
	<path fill="#FFFFFF" d="M186.018,5.988l1.843-0.031h4.71l1.476,0.064l-0.066-1.274V3.653l0.066-1.342l-1.511,0.078h-4.475
		l-2.043-0.078l0.059,1.331v1.276L186.018,5.988z M191.734,3.416h1.089v1.58h-1.089V3.416z M189.555,3.416h1.109v1.58h-1.109V3.416z
		 M187.255,3.416h1.123v1.58h-1.123V3.416z"/>
	<path fill="#FFFFFF" d="M194.384,12.526l-1.11-0.776c-0.225,0.325-0.699,0.741-1.409,1.247c-0.321-0.417-0.57-0.81-0.751-1.333
		h1.349l1.286,0.029l-0.078-0.98V9.44l0.061-0.895l-1.378,0.06h-4.157l-1.699-0.029l0.086,0.936v1.167l-0.086,1.078l1.319-0.094
		h0.604c-0.284,0.407-0.856,0.831-1.719,1.426c-0.857,0.594-1.683,0.958-2.473,1.16c0.467,0.222,0.812,0.568,1.039,1.031
		c1.362-0.731,2.409-1.471,2.831-1.959v1.559c0,0.152-0.196,0.346-0.59,0.58c0.245,0.268,0.512,0.642,0.806,1.115
		c0.821-0.592,1.465-1,2.531-1.516c-0.2-0.351-0.329-0.701-0.379-1.061l-1.152,0.718v-2.413c0.405-0.42,0.51-0.482,0.629-0.64
		l0.063,0.104c0.764,2.206,2.254,3.662,4.468,4.417c0.175-0.502,0.457-0.922,0.845-1.249c-1.315-0.374-2.273-0.765-2.872-1.234
		C193.246,13.3,193.89,12.907,194.384,12.526 M187.767,9.605h4.711v1.103h-4.711V9.605z"/>
	<path fill="#FFFFFF" d="M193.917,47.849h-5.627l-1.149-0.068v1.292l1.084-0.066h3.91c-0.335,1.234-0.821,2.255-1.455,3.062
		c-0.716-0.778-1.197-1.7-1.439-2.767l-1.374,0.428c0.253,1.021,0.864,2.097,1.829,3.222c-1.125,0.934-2.156,1.58-3.086,1.93
		c0.424,0.261,0.759,0.669,1,1.226c0.657-0.331,1.669-1.115,3.029-2.345c1.274,0.881,2.449,1.576,3.523,2.084
		c0.432-0.63,0.812-1.107,1.145-1.44c-1.1-0.241-2.345-0.745-3.736-1.506C192.586,51.84,193.368,50.151,193.917,47.849"/>
	<polygon fill="#FFFFFF" points="181.9,45.761 181.01,45.715 181.01,46.902 181.92,46.812 185.259,46.812 186.22,46.902 
		186.22,45.715 185.278,45.761 	"/>
	<path fill="#FFFFFF" d="M184.641,42.672c-0.288-0.669-0.619-1.142-1.174-1.782l-1.241,0.603c0.465,0.625,0.722,1.1,0.943,1.792
		L184.641,42.672z"/>
	<polygon fill="#FFFFFF" points="185.733,44.677 186.959,44.769 186.959,43.563 185.749,43.612 181.274,43.612 180.33,43.563 
		180.33,44.769 181.274,44.677 	"/>
	<polygon fill="#FFFFFF" points="185.119,48.9 186.156,48.98 186.156,47.781 185.139,47.849 181.967,47.849 181.01,47.797 
		181.01,48.98 181.986,48.9 	"/>
	<path fill="#FFFFFF" d="M193.423,105.683v-0.653l0.031-0.685h-1.339l0.035,0.747v0.591h-3.876c-1.043,0-1.825-0.035-1.825-0.035
		v1.176l1.172-0.055l0.716-0.004l-0.477,0.253c0.375,0.3,0.847,0.767,1.188,1.584l1.186-0.635c-0.24-0.482-0.641-0.855-0.929-1.206
		l2.888-0.004v0.72c-0.035,0.202-0.121,0.347-0.253,0.437c-0.137,0.085-0.312,0.14-0.518,0.155
		c-0.206,0.023-0.413,0.035-0.623,0.047c0,0,0.539,0.241,0.87,1.183c1.167-0.078,1.753-0.58,1.753-1.518v-1.023h0.638l1.059,0.066
		v-1.141H193.423z"/>
	<path fill="#FFFFFF" d="M191.598,112.716c-1.08-0.409-1.961-0.841-2.651-1.479h4.36l1.469,0.034v-1.226l-1.437,0.031h-1.616
		c0,0-0.145-0.183-0.229-0.3c-0.172-0.226-0.172-0.226-0.521-0.646c-0.397,0.159-1.282,0.518-1.282,0.518
		c0.126,0.132,0.122,0.124,0.257,0.272c0.029,0.023,0.153,0.155,0.153,0.155h-1.755l0.163-0.934l-1.436-0.257
		c0,0.33-0.021,0.747-0.066,1.19h-4.662l-1.51-0.051v1.261l1.543-0.05h4.392c-0.321,0.836-1.163,1.381-2.525,1.805
		c-1.364,0.417-2.576,0.568-3.482,0.44c0.334,0.471,0.48,0.957,0.436,1.463c1.308-0.09,2.475-0.284,3.353-0.584
		c0.877-0.296,1.547-0.63,2.01-0.996c0.467-0.365,0.79-0.692,0.969-0.98c0.18-0.292,0.308-0.482,0.382-0.704
		c0.412,0.661,1.315,1.288,2.714,2.012c1.396,0.724,2.695,1.105,3.892,1.144c-0.041-0.439,0.134-0.961,0.531-1.549
		C193.828,113.31,192.678,113.12,191.598,112.716"/>
	<path fill="#FFFFFF" d="M187.059,103.38c0.531-0.342,0.843-0.56,1.938-1.245h3.921c-0.447,0.498-1.047,0.747-1.561,1.023
		l-0.902-1.043l-1.062,0.58c0.3,0.214,0.634,0.553,1.012,1.004c-0.165,0.102-0.356,0.187-0.58,0.253
		c-0.194-0.261-0.498-0.604-0.864-1.07l-0.963,0.627c0.278,0.237,0.417,0.404,0.588,0.739c-0.167,0.039-0.379,0.07-0.617,0.094
		c-0.718,0.077-1.518,0.05-1.518,0.05c0.67,0.576,0.73,0.903,0.748,1.023c0,0,0.486-0.004,1.548-0.14l0.031-0.004
		c0.849-0.109,1.627-0.335,2.335-0.704c0.833-0.433,1.643-0.915,2.189-1.444c0.546-0.525,0.951-0.977,1.22-1.357
		c0.101-0.148,0.19-0.276,0.267-0.39l-0.884-0.323l-0.313,0.062h-3.704c0.169-0.175,0.568-0.396,0.817-0.669l-1.276-0.658
		c-0.557,1.227-1.784,1.845-3.16,2.639C186.637,102.621,186.899,102.936,187.059,103.38"/>
	<path fill="#FFFFFF" d="M186.543,64.736c0.218,0,0.572,0.016,1.059,0.047v-1.238c-0.52,0.023-0.868,0.035-1.043,0.035h-5.319
		c-0.231,0-0.545-0.02-0.944-0.059v1.261c0.423-0.031,0.734-0.047,0.944-0.047H186.543z"/>
	<path fill="#FFFFFF" d="M186.722,70.009l-1.155,0.05h-3.105l-1.19-0.05l0.065,1.263v2.432l-0.081,1.494h1.408v-1.345h2.65v1.246
		h1.393l-0.046-1.853v-1.829L186.722,70.009z M185.313,72.896h-2.646v-1.813h2.646V72.896z"/>
	<path fill="#FFFFFF" d="M182.01,65.621c-0.241,0-0.545-0.018-0.911-0.049v1.214c0.401-0.02,0.709-0.035,0.927-0.051h3.879
		c0.219,0,0.537,0.016,0.958,0.051v-1.214c-0.459,0.031-0.772,0.049-0.942,0.049H182.01z"/>
	<path fill="#FFFFFF" d="M182.138,67.79c-0.233,0-0.554-0.012-0.965-0.047v1.187c0.447-0.012,0.778-0.025,0.984-0.047h3.68
		c0.22,0,0.562,0.016,1.025,0.047v-1.171c-0.475,0.023-0.812,0.031-1.008,0.031H182.138z"/>
	<path fill="#FFFFFF" d="M184.943,62.706c-0.289-0.667-0.62-1.14-1.175-1.78l-1.241,0.603c0.467,0.623,0.722,1.099,0.941,1.788
		L184.943,62.706z"/>
	<polygon fill="#FFFFFF" points="182.315,8.679 182.315,11.545 183.527,11.173 183.527,8.679 183.951,8.679 184.998,8.723 
		184.998,7.42 183.936,7.506 183.527,7.506 182.315,7.506 181.834,7.506 180.761,7.49 180.761,8.794 181.875,8.679 	"/>
	<path fill="#FFFFFF" d="M185.426,11.284c-0.887,0.312-1.408,0.452-1.898,0.613v-0.01l-1.755,0.463l-0.004-0.016
		c-0.461,0.136-0.942,0.261-1.45,0.331c0.26,0.327,0.454,0.812,0.588,1.473c0.92-0.395,2.479-1.09,4.68-1.784L185.426,11.284z"/>
	<polygon fill="#FFFFFF" points="186.156,51.287 186.22,49.933 185.123,49.986 182.19,49.986 180.934,49.933 181.002,51.089 
		182.29,51.089 182.29,51.081 184.87,51.081 184.87,53.167 182.29,53.167 182.29,51.699 181.01,51.699 181.01,54.237 180.916,55.69 
		182.29,55.69 182.29,54.202 184.87,54.202 184.87,55.319 186.204,55.319 186.156,53.795 	"/>
	<polygon fill="#FFFFFF" points="190.693,65.417 192.086,65.417 192.086,62.479 192.152,60.906 190.613,60.906 190.693,62.381 	"/>
	<polygon fill="#FFFFFF" points="193.809,66.031 192.086,66.031 192.086,66.028 190.693,66.028 190.693,66.031 189.109,66.031 
		187.602,65.957 187.602,67.335 189.094,67.284 190.678,67.284 190.678,73.662 190.629,75.55 192.168,75.55 192.104,73.662 
		192.104,67.284 193.777,67.284 195.342,67.35 195.342,65.973 	"/>
	<polygon fill="#FFFFFF" points="181.312,104.326 182.315,104.291 183.99,104.291 183.99,103.174 182.562,103.174 182.562,101.882 
		182.594,101.049 181.312,101.049 181.346,101.917 181.346,103.544 	"/>
	<path fill="#FFFFFF" d="M185.815,101.789l0.066-1.545h-1.356l0.072,1.51v0.561h0.004v2.479h-0.004v0.486h-2.872l-0.977-0.031v1.249
		l1.304-0.027c0.016,1.121-0.475,1.849-1.535,2.354c0.461,0.144,0.818,0.463,1.068,0.953c0.526-0.404,0.891-0.825,1.159-1.323
		c0.269-0.502,0.434-0.875,0.5-1.229c0.064-0.354,0.098-0.606,0.098-0.755h1.216v1.95l-0.033,1.222h1.323l-0.033-1.222V101.789z"/>
	<path fill="#FFFFFF" d="M191.676,43.092v0.006h1.339v-0.092l0.063-1.121c-0.163,0.012-0.603,0.035-1.312,0.057h-2.242l-1.375-0.057
		c0.045,0.486,0.064,0.938,0.064,1.343c0,0.941-0.105,1.677-0.323,2.218c-0.212,0.537-0.588,0.946-1.123,1.234
		c0.469,0.21,0.847,0.518,1.135,0.92c0.512-0.317,0.943-0.916,1.288-1.788c0.35-0.872,0.49-1.778,0.424-2.72H191.676z"/>
	<path fill="#FFFFFF" d="M193.816,45.639c-0.551,0-0.821-0.111-0.802-0.331v-1.597h-1.339v2.467c0,0.208,0.062,0.377,0.196,0.506
		c0.131,0.13,0.298,0.206,0.498,0.224c0.204,0.018,0.572,0.037,1.111,0.044c0.539,0.014,0.957,0,1.261-0.031
		c0.045-0.364,0.136-0.833,0.274-1.405C194.546,45.598,194.146,45.639,193.816,45.639"/>
	<path fill="#FFFFFF" d="M341.979,79.845c-0.969,5.351-2.391,9.653-4.037,13.052c-1.65,3.395-3.547,5.906-5.504,7.681
		c-4.568,4.156-9.542,7.472-16.029,9.775c-5.171,1.821-11.323,3.868-15.95,5.218l-1.047,0.272c-1.312,0.362-2.57,0.729-3.821,1.117
		c-1.147,0.315-1.812,0.494-1.812,0.494l0.16,0.051c-18.12,6.184-27.474,17.34-27.474,38.139c0,22.438,10.824,35.637,30.405,37.63
		c26.441,2.704,42.194-12.644,44.28-43.334l0.4-9.954v-4.985C342.951,114.245,341.979,79.845,341.979,79.845 M300.515,181.452
		v-55.074c9.868,0.245,13.188,0.806,13.307,10.907v28.107C314.167,176.872,314.051,182.37,300.515,181.452"/>
	<path fill="#F05A30" d="M319.409,89.406c4.819,0.743,5.821,0.521,8.987,0.521c1.714,0,4.441,0.553,6.928,2.132
		c0.473-0.793,0.952-1.638,1.39-2.541c1.644-3.401,3.062-7.708,4.035-13.049c-0.712-15.661-9.435-24.666-21.92-24.666
		c-9.264,0-14.993,7.491-14.993,18.554C303.836,81.61,310.42,88.019,319.409,89.406"/>
	<path fill="#FFFFFF" d="M202.404,111.824c0.261,0.763,1.09,2.564,2.813,2.564c1.231,0,2.012-0.829,2.012-2.094
		c0-1.381-1.057-1.949-2.098-2.451c-0.533-0.261-2.728-1.023-2.728-2.969c0-1.611,1.218-2.989,3.347-2.989
		c0.455,0,1.006,0.094,1.346,0.211c0.211,0.062,0.44,0.147,0.619,0.175c0.062,0.572,0.163,1.222,0.292,2.194l-0.405,0.051
		c-0.276-0.957-0.731-2.098-2.21-2.098c-1.155,0-1.755,0.845-1.755,1.802c0,1.202,0.864,1.739,2.094,2.292
		c1.073,0.471,2.78,1.137,2.78,3.148c0,1.883-1.543,3.265-3.605,3.265c-0.584,0-1.139-0.113-1.547-0.241
		c-0.4-0.133-0.694-0.265-0.889-0.343c-0.133-0.424-0.312-1.575-0.472-2.451L202.404,111.824z"/>
	<path fill="#FFFFFF" d="M212.164,112.33c0,1.767,0.128,1.88,1.463,1.977v0.378h-4.286v-0.378c1.328-0.097,1.461-0.21,1.461-1.977
		v-5.849c0-1.771-0.133-1.879-1.461-1.98v-0.374h4.286v0.374c-1.335,0.102-1.463,0.21-1.463,1.98V112.33z"/>
	<path fill="#FFFFFF" d="M224.087,114.794h-0.427l-7.045-8.558h-0.035v4.141c0,1.708,0.066,2.584,0.129,3.09
		c0.085,0.568,0.521,0.794,1.595,0.84v0.378h-3.898v-0.378c0.895-0.03,1.315-0.271,1.396-0.84c0.062-0.506,0.131-1.382,0.131-3.09
		v-3.521c0-1.168-0.018-1.429-0.31-1.802c-0.308-0.39-0.747-0.506-1.428-0.553v-0.374h2.369l6.837,8.188h0.035v-3.883
		c0-1.709-0.065-2.584-0.132-3.086c-0.082-0.568-0.521-0.798-1.592-0.845v-0.374h3.896v0.374c-0.892,0.031-1.313,0.276-1.394,0.845
		c-0.066,0.502-0.128,1.377-0.128,3.086V114.794z"/>
	<path fill="#FFFFFF" d="M235.239,106.789c-0.486-1.864-1.525-2.37-3.117-2.37c-2.922,0-4.222,2.211-4.222,4.76
		c0,3.136,1.607,5.21,4.239,5.21c1.817,0,2.662-0.875,3.458-2.576l0.404,0.043c-0.21,0.7-0.568,2-0.829,2.615
		c-0.451,0.116-1.914,0.455-3.051,0.455c-4.109,0-5.829-2.79-5.829-5.374c0-3.347,2.58-5.666,6.137-5.666
		c1.382,0,2.469,0.323,2.922,0.421c0.131,0.895,0.195,1.61,0.292,2.451L235.239,106.789z"/>
	<path fill="#FFFFFF" d="M238.016,106.481c0-1.771-0.13-1.879-1.43-1.98v-0.374h7.113c0.018,0.276,0.097,1.464,0.179,2.37
		l-0.404,0.051c-0.164-0.813-0.343-1.233-0.586-1.494c-0.259-0.276-0.796-0.39-1.788-0.39h-1.233c-0.451,0-0.486,0.035-0.486,0.502
		v3.701h1.642c1.396,0,1.446-0.098,1.607-1.3h0.404v3.218h-0.404c-0.082-0.599-0.131-0.926-0.343-1.104
		c-0.21-0.18-0.565-0.211-1.265-0.211h-1.642v2.872c0,0.927,0.099,1.417,0.404,1.607c0.31,0.202,0.896,0.202,1.658,0.202
		c0.926,0,1.688-0.082,2.047-0.475c0.276-0.292,0.536-0.845,0.778-1.592l0.408,0.047c-0.082,0.455-0.441,2.113-0.572,2.553h-7.68
		v-0.378c1.462-0.097,1.592-0.21,1.592-1.977V106.481z"/>
	<path fill="#FFFFFF" d="M249.902,105.201c0.844-0.214,1.82-0.49,2.812-0.848v8.868c0,0.91,0.078,0.988,1.541,1.085v0.378h-4.354
		v-0.378c1.463-0.097,1.544-0.175,1.544-1.085v-6.981c0-0.584-0.065-0.665-0.422-0.685l-1.122-0.031V105.201z"/>
	<path fill="#FFFFFF" d="M256.546,114.587c2.435-0.537,4.06-2.112,4.609-4.778l-1.12,0.654c-0.356,0.194-0.666,0.257-1.006,0.257
		c-1.769,0-2.858-1.266-2.858-2.97c0-1.514,1.185-3.396,3.296-3.396c2.031,0,3.2,1.852,3.2,4.059c0,2.848-1.608,5.102-3.8,6.008
		c-0.879,0.362-1.806,0.506-2.276,0.506L256.546,114.587z M257.502,107.147c0,1.514,0.797,2.681,2.159,2.681
		c0.568,0,1.185-0.229,1.529-0.475c0.047-0.292,0.062-0.692,0.062-0.969c0-1.366-0.374-3.541-2.012-3.541
		C257.891,104.844,257.502,106.236,257.502,107.147"/>
	<path fill="#FFFFFF" d="M270.199,104.548l0.116,0.183c-1.545,3.296-3.021,6.658-4.389,9.985l-1.28,0.163l-0.08-0.163
		c1.706-3.02,3.296-6.055,4.676-9.044h-3.604c-1.059,0-1.105,0.082-1.399,1.086h-0.387c0.128-0.794,0.175-1.51,0.257-2.21H270.199z"
		/>
	<path fill="#FFFFFF" d="M276.938,104.548l-0.228,1.124h-3.895l-0.407,2.79c0.665-0.241,1.396-0.436,1.849-0.436
		c2.148,0,3.152,1.475,3.152,2.841c0,1.07-0.438,1.996-1.397,2.825c-0.86,0.747-1.965,1.167-3.035,1.187
		c-0.683,0-1.233-0.292-1.561-0.603c-0.163-0.145-0.192-0.339-0.128-0.518c0.065-0.18,0.179-0.358,0.357-0.49
		c0.146-0.094,0.325-0.078,0.486,0.05c0.374,0.312,0.909,0.747,1.868,0.747c1.364,0,2.109-1.151,2.109-2.518
		c0-1.51-0.845-2.58-2.727-2.58c-0.665,0-1.282,0.245-1.573,0.323l0.518-4.743H276.938z"/>
	<polygon fill="#FFFFFF" points="222.044,2.595 225.871,2.595 225.871,10.79 232.757,2.595 237.457,2.595 229.614,11.584 
		237.784,21.662 232.782,21.662 225.928,12.811 225.871,12.811 225.871,21.662 222.044,21.662 	"/>
	<polygon fill="#FFFFFF" points="215.66,27.4 218.184,27.4 218.184,38.002 223.071,38.002 223.071,39.987 215.66,39.987 	"/>
	<polygon fill="#FFFFFF" points="262.739,27.4 265.265,27.4 265.265,38.002 270.152,38.002 270.152,39.987 262.739,39.987 	"/>
	<path fill="#FFFFFF" d="M306.575,29.71c-0.792-0.343-1.679-0.541-2.561-0.541c-0.868,0-1.984,0.377-1.984,1.747
		c0,2.183,5.518,1.261,5.518,5.479c0,2.759-2.183,3.81-4.724,3.81c-1.37,0-1.984-0.181-3.227-0.49l0.232-2.269
		c0.869,0.467,1.857,0.774,2.85,0.774c0.956,0,2.234-0.486,2.234-1.623c0-2.399-5.515-1.407-5.515-5.573
		c0-2.813,2.18-3.84,4.397-3.84c1.084,0,2.092,0.146,3.012,0.449L306.575,29.71z"/>
	<rect x="309.622" y="27.398" fill="#FFFFFF" width="2.523" height="12.586"/>
	<polygon fill="#FFFFFF" points="327.742,27.4 330.846,27.4 335.64,36.815 335.677,36.815 335.677,27.4 338.093,27.4 
		338.093,39.987 335.01,39.987 330.195,30.573 330.16,30.573 330.16,39.987 327.742,39.987 	"/>
	<path fill="#FFFFFF" d="M276.176,48.147c-0.795-0.346-1.679-0.541-2.564-0.541c-0.865,0-1.98,0.377-1.98,1.748
		c0,2.183,5.516,1.265,5.516,5.483c0,2.759-2.181,3.806-4.724,3.806c-1.372,0-1.982-0.183-3.228-0.49l0.235-2.271
		c0.865,0.469,1.854,0.776,2.847,0.776c0.957,0,2.237-0.486,2.237-1.623c0-2.399-5.519-1.407-5.519-5.572
		c0-2.813,2.182-3.841,4.399-3.841c1.082,0,2.094,0.144,3.013,0.451L276.176,48.147z"/>
	<path fill="#FFFFFF" d="M201.524,88.901c1.462-1.3,3.292-2.887,5.078-4.553c3.133-2.926,8.172-7.522,8.172-12.114
		c0-2.642-2.358-4.512-5.447-4.512c-2.521,0-4.958,0.975-6.503,1.829l-0.404-3.496c2.354-1.016,4.876-1.666,7.437-1.666
		c5.12,0,9.228,2.763,9.228,8.088c0,4.716-5.082,9.754-8.212,12.886c-1.584,1.588-3.619,3.292-4.999,4.553h13.618v3.335h-17.967
		V88.901z"/>
	<path fill="#FFFFFF" d="M231.769,64.389c7.845,0,9.635,8.456,9.635,14.674c0,6.219-1.79,14.674-9.635,14.674
		c-7.846,0-9.634-8.456-9.634-14.674C222.135,72.845,223.923,64.389,231.769,64.389 M231.769,90.403
		c4.878,0,5.327-7.806,5.327-11.339c0-3.578-0.654-11.343-5.327-11.343c-4.674,0-5.325,7.766-5.325,11.343
		C226.443,82.597,226.893,90.403,231.769,90.403"/>
	<polygon fill="#FFFFFF" points="249.534,69.549 245.186,73.291 243.031,70.567 249.979,64.876 253.599,64.876 253.599,93.251 
		249.534,93.251 	"/>
	<path fill="#FFFFFF" d="M259.089,85.811c0-3.783,2.604-6.3,6.017-7.479V78.25c-4.145-1.463-5.325-4.39-5.325-7.075
		c0-3.617,3.414-6.786,9.188-6.786c5.609,0,8.78,3.251,8.78,6.382c0,3.171-1.302,5.284-5.123,7.315
		c3.415,1.179,5.976,3.74,5.976,7.518c0,5.693-4.514,8.133-9.837,8.133C263.965,93.738,259.089,91.054,259.089,85.811
		 M268.113,79.836c-2.319,1.625-4.715,2.397-4.715,5.732c0,3.129,2.886,4.835,5.73,4.835c2.724,0,5.082-1.626,5.162-4.471
		C274.413,81.947,271.16,81.297,268.113,79.836 M269.697,76.907c3.335-2.561,3.741-3.658,3.741-5.607
		c0-2.683-2.765-3.578-4.798-3.578c-1.87,0-4.796,1.341-4.796,4.022C263.845,73.698,265.876,75.04,269.697,76.907"/>
	<path fill="#FFFFFF" d="M209.066,38.216c-0.047,0-0.086,0.004-0.133,0.004c-2.687,0-4.272-1.93-4.272-4.491
		c0-2.58,1.623-4.562,4.561-4.562c1.012,0,2.272,0.216,3.247,0.667l0.162-2.125c-1.082-0.327-2.236-0.525-3.697-0.525
		c-4.272,0-6.907,2.417-6.907,6.726c0,4.255,2.833,6.29,6.907,6.29c0.043,0,0.09-0.004,0.133-0.004V38.216z"/>
	<path fill="#FFFFFF" d="M207.924,32.774v1.982h2.668v3.284c0,0-0.012,0-0.016,0.004v2.023c0.816-0.117,1.636-0.299,2.432-0.517
		v-6.777H207.924z"/>
	<path fill="#FFFFFF" d="M252.556,53.501c-0.257-0.559-0.653-1.243-1.335-1.296v-0.039c1.604-0.216,2.596-1.444,2.596-2.923
		c0-3.498-3.228-3.409-5.933-3.409h-2.722v12.588h2.521v-3.261h-0.002v-5.317h0.002V47.82h0.829c1.263,0,2.671,0.126,2.671,1.642
		c0,1.288-0.959,1.638-1.992,1.724v2.088c0.539,0.152,0.788,0.527,1.053,1.22l1.516,3.93h2.812L252.556,53.501z"/>
	<path fill="#FFFFFF" d="M244.654,33.476v-0.035c1.496-0.272,2.508-1.317,2.508-2.813c0-2.759-2.436-3.228-4.059-3.228h-4.397
		v12.586h4.397c1.588,0,4.437-0.469,4.437-3.642C247.54,34.796,246.368,33.64,244.654,33.476 M242.419,38.004h-1.19V34.36h0.002
		v-1.875h-0.002v-3.1h0.973c1.155,0,2.436,0.107,2.436,1.566c0,1.109-0.957,1.444-1.896,1.516v1.901
		c1.159,0.047,2.274,0.385,2.274,1.887C245.015,37.714,243.59,38.004,242.419,38.004"/>
	<path fill="#FFFFFF" d="M280.211,27.4h-3.441v12.586h2.527v-1.984h-0.004v-8.62h1.405c2.11,0,4.147,1.568,4.147,4.312
		c0,2.695-1.969,4.251-4.039,4.304v1.977c3.607-0.136,6.674-1.545,6.674-6.281C287.48,28.698,284.071,27.4,280.211,27.4"/>
	<polygon fill="#FFFFFF" points="292.31,38.004 292.31,36.29 292.306,36.29 292.306,30.97 292.31,30.97 292.31,29.385 
		297.217,29.385 297.217,27.4 289.788,27.4 289.788,39.987 297.25,39.987 297.25,38.004 	"/>
	<rect x="293.815" y="32.484" fill="#FFFFFF" width="2.985" height="1.984"/>
	<path fill="#FFFFFF" d="M259.836,45.837h-3.443v12.586h2.529v-1.984h-0.004V47.82h1.406c2.109,0,4.146,1.568,4.146,4.312
		c0,2.693-1.969,4.251-4.041,4.304v1.977c3.609-0.136,6.676-1.545,6.676-6.281C267.105,47.135,263.696,45.837,259.836,45.837"/>
	<path fill="#FFFFFF" d="M321.284,38.216c-0.048,0-0.093,0.004-0.142,0.004c-2.684,0-4.271-1.93-4.271-4.491
		c0-2.58,1.62-4.562,4.561-4.562c1.008,0,2.272,0.216,3.245,0.667l0.163-2.125c-1.085-0.327-2.237-0.525-3.698-0.525
		c-4.271,0-6.905,2.417-6.905,6.726c0,4.255,2.831,6.29,6.905,6.29c0.049,0,0.096-0.004,0.142-0.008V38.216z"/>
	<path fill="#FFFFFF" d="M320.137,32.774v1.982h2.665v3.284c-0.003,0-0.003,0-0.003,0l-0.004,2.023
		c0.812-0.113,1.628-0.295,2.424-0.513v-6.777H320.137z"/>
	<path fill="#FFFFFF" d="M229.618,38.167c-2.115-0.336-2.921-2.43-2.921-4.512c0-2.025,0.86-4.092,2.921-4.432v-2.014
		c-3.609,0.257-5.555,2.792-5.555,6.446c0,3.658,1.914,6.261,5.555,6.522V38.167z"/>
	<path fill="#FFFFFF" d="M231.13,27.239v2.039c1.854,0.479,2.635,2.45,2.635,4.38c0,1.984-0.731,3.983-2.635,4.458v2.031
		c3.409-0.385,5.265-2.981,5.265-6.489C236.395,30.153,234.51,27.62,231.13,27.239"/>
	<rect x="202.318" y="14.679" fill="#FFFFFF" width="3.825" height="6.983"/>
	<polygon fill="#FFFFFF" points="213.794,2.595 213.794,10.296 206.146,10.296 206.146,2.595 202.318,2.595 202.318,13.302 
		207.889,13.302 207.889,13.303 213.794,13.303 213.794,21.662 217.619,21.662 217.619,2.595 	"/>
	<path fill="#FFFFFF" d="M245.489,2.595h-5.221v19.067h3.839v-3.004h-0.012V5.599h2.131c3.196,0,6.282,2.377,6.282,6.53
		c0,4.152-3.086,6.529-6.282,6.529h-0.741v3.004h0.004c5.849,0,11.013-1.965,11.013-9.534C256.502,4.56,251.338,2.595,245.489,2.595
		"/>
	<polygon fill="#FFFFFF" points="269.779,2.595 265.461,2.595 258.031,21.662 261.99,21.662 263.298,18.242 265.465,12.247 
		267.51,6.418 267.564,6.418 270.323,14.284 266.107,14.284 265.02,17.294 271.39,17.294 273.028,21.662 277.266,21.662 	"/>
	<polygon fill="#FFFFFF" points="209.094,45.837 206.245,45.837 201.342,58.424 203.953,58.424 204.377,57.315 204.371,57.315 
		205.776,53.554 205.774,53.554 207.596,48.365 207.632,48.365 209.453,53.554 207.393,53.554 206.681,55.536 210.155,55.536 
		211.237,58.424 214.031,58.424 	"/>
	<polygon fill="#FFFFFF" points="256.177,27.4 253.33,27.4 248.423,39.987 251.036,39.987 252.138,37.099 252.147,37.099 
		252.887,35.116 252.857,35.116 254.681,29.927 254.717,29.927 256.538,35.116 254.505,35.116 253.795,37.099 257.241,37.099 
		258.322,39.987 261.117,39.987 	"/>
	<polygon fill="#FFFFFF" points="238.813,45.837 235.965,45.837 231.06,58.424 233.675,58.424 234.772,55.536 234.794,55.536 
		235.531,53.554 235.494,53.554 237.317,48.365 237.353,48.365 239.174,53.554 237.156,53.554 236.445,55.536 239.878,55.536 
		240.959,58.424 243.754,58.424 	"/>
	<polygon fill="#FFFFFF" points="218.748,55.795 218.742,55.817 218.705,55.817 216.362,45.754 213.713,45.754 217.047,58.342 
		219.354,58.342 	"/>
	<polygon fill="#FFFFFF" points="228.928,45.754 226.567,55.817 226.534,55.817 224.312,45.754 220.888,45.754 219.479,52.357 
		220.598,57.05 222.546,48.279 222.583,48.279 224.855,58.342 228.099,58.342 231.383,45.754 	"/>
	<path fill="#FFFFFF" d="M106.007,61.755l10.277-10.261c0.189,1.068,0.349,2.152,0.482,3.245l-6.993,7l7.008,7.002
		c-0.138,1.096-0.302,2.181-0.497,3.267L106.007,61.755z"/>
	<path fill="#FFFFFF" d="M94.16,61.755l19.579-19.585c0.341,0.918,0.647,1.856,0.949,2.798L97.909,61.739l16.778,16.776
		c-0.289,0.949-0.598,1.891-0.949,2.81L94.16,61.755z"/>
	<path fill="#FFFFFF" d="M82.283,61.755l27.708-27.71c0.446,0.805,0.897,1.619,1.3,2.448L86.049,61.739l25.256,25.257
		c-0.418,0.835-0.861,1.65-1.304,2.458L82.283,61.755z"/>
	<path fill="#FFFFFF" d="M70.417,61.755l34.849-34.835c0.538,0.696,1.078,1.42,1.593,2.146l-32.69,32.673l32.697,32.684
		c-0.515,0.736-1.048,1.465-1.6,2.167L70.417,61.755z"/>
	<path fill-rule="evenodd" clip-rule="evenodd" fill="#FFFFFF" d="M119.861,121.178H1V2.311h118.861V121.178z M3.674,6.867v53.541
		h53.524L3.674,6.867z M59.111,58.541V4.998H5.564L59.111,58.541z M59.111,63.086H3.674v55.424h55.437V63.086z M62.314,61.755
		l54.891,54.879V6.867L62.314,61.755z M61.774,112.443v6.066h53.538L61.771,64.981l0.003,8.081l33.503,33.506
		c-0.703,0.553-1.42,1.09-2.154,1.6L61.771,76.838v8.096l26.377,26.373c-0.805,0.459-1.629,0.892-2.473,1.3l-23.905-23.9l0.003,8.1
		l18.238,18.245c-0.928,0.338-1.865,0.661-2.813,0.957L61.774,100.57v8.095l8.921,8.935c-1.075,0.187-2.177,0.357-3.267,0.502
		L61.774,112.443z M61.774,50.402l-0.003,8.133l53.541-53.537H61.774v6.061l5.634-5.637c1.102,0.126,2.17,0.29,3.26,0.485
		L61.771,14.8l0.003,8.119L77.188,7.506c0.945,0.288,1.888,0.611,2.81,0.942L61.774,26.675v8.117l23.9-23.895
		c0.833,0.407,1.64,0.841,2.446,1.29l-26.349,26.35l0.003,8.129l31.333-31.343c0.73,0.521,1.441,1.058,2.156,1.599L61.774,50.402z"
		/>
	<path fill="#FFFFFF" d="M11.678,174.723l0.632,1.386c-1.277,0.272-2.762,0.482-4.454,0.623v1.443h5.547v1.393H9.354
		c0.487,0.549,0.939,0.938,1.352,1.188c0.662,0.451,1.576,0.891,2.762,1.327l-0.578,1.514c-0.42-0.184-0.806-0.378-1.144-0.572
		v7.184h-1.223v-0.778H4.063v0.778H2.854v-7.148c-0.35,0.202-0.706,0.404-1.09,0.606l-0.724-1.521
		c1.494-0.618,2.549-1.198,3.158-1.708c0.325-0.249,0.612-0.533,0.876-0.868H1.183v-1.393h5.411v-1.374
		c-1.319,0.066-2.731,0.117-4.256,0.117l-0.364-1.459C5.789,175.46,9.016,175.211,11.678,174.723 M3.573,182.6h3.021v-3.032H6.488
		c-0.39,0.697-0.833,1.292-1.318,1.774C4.727,181.767,4.199,182.187,3.573,182.6 M4.063,185.242h6.459v-1.179H4.063V185.242z
		 M4.063,188.04h6.459v-1.389H4.063V188.04z M7.856,182.6h3.165c-0.546-0.323-1-0.646-1.355-0.97
		c-0.546-0.436-1.11-1.124-1.688-2.062H7.856V182.6z"/>
	<path fill="#FFFFFF" d="M19.732,178.771c0.787,0.467,1.521,1.012,2.166,1.649l-0.801,1.521c-0.657-0.813-1.34-1.451-2.034-1.91
		L19.732,178.771z M20.896,182.88l0.627,0.588c0.945-0.61,1.618-1.171,2.009-1.677c0.213-0.265,0.411-0.557,0.597-0.903H22.04
		v-1.389H24v-1.658h-1.628v-1.385H24v-1.732h1.253v1.732h2.456v-1.732h1.207v1.732h2.048v1.385h-2.048v1.658h2.371v1.389H28.77
		c0.305,0.49,0.594,0.849,0.865,1.066c0.418,0.428,1.036,0.841,1.801,1.241l-0.534,1.451c-0.8-0.498-1.428-0.957-1.876-1.396v3.401
		h-4.295v1.257c0,0.361,0.157,0.521,0.466,0.521h3.72c0.261,0,0.453-0.07,0.558-0.215c0.139-0.159,0.243-0.879,0.292-2.171
		l1.135,0.471c-0.111,1.631-0.302,2.588-0.569,2.86c-0.231,0.308-0.646,0.451-1.258,0.451h-4.345c-0.369,0-0.666-0.132-0.887-0.393
		c-0.209-0.272-0.325-0.635-0.325-1.07v-4.572c-0.404,0.4-0.878,0.794-1.417,1.206l-0.268-0.576
		c-0.514,2.23-1.059,4.184-1.669,5.856l-1.009-1.396C19.718,187.471,20.289,185.479,20.896,182.88 M20.274,174.794
		c0.737,0.432,1.421,0.934,2.043,1.529l-0.794,1.518c-0.627-0.755-1.278-1.354-1.938-1.782L20.274,174.794z M24.711,182.35h3.536
		c-0.276-0.381-0.552-0.875-0.836-1.463H25.42C25.195,181.444,24.964,181.93,24.711,182.35 M24.729,185.308h3.09v-1.643h-3.09
		V185.308z M25.253,179.499h2.459v-1.666h-2.459V179.499z"/>
	<path fill="#FFFFFF" d="M39.77,174.603c0.203,0.568,0.397,1.21,0.554,1.922h1.897v1.382h-5.084v-1.382H39.1
		c-0.173-0.622-0.376-1.194-0.591-1.731L39.77,174.603z M41.701,183.989v4.892H38.77v1.218h-1.202v-6.109H41.701z M37.625,179.032
		h4.075v1.311h-4.075V179.032z M37.625,181.487h4.075v1.315h-4.075V181.487z M38.77,187.507h1.715v-2.124H38.77V187.507z
		 M47.747,175.058v3.899c0,0.408,0.15,0.606,0.473,0.606h1.045v1.514h-1.319c-0.502,0-0.897-0.136-1.139-0.408
		c-0.256-0.257-0.379-0.712-0.379-1.362v-2.848h-2.05c-0.03,1.12-0.12,1.926-0.261,2.416c-0.158,0.673-0.566,1.443-1.262,2.343
		l-0.938-1.059c0.542-0.774,0.905-1.389,1.034-1.849c0.12-0.412,0.181-1.494,0.181-3.253H47.747z M42.427,181.487h5.842v1.116
		c-0.333,1.736-0.873,3.207-1.66,4.413c0.755,0.611,1.702,1.113,2.852,1.549l-0.787,1.459c-1.264-0.563-2.262-1.167-2.995-1.81
		c-0.755,0.744-1.763,1.382-3.016,1.946l-0.745-1.394c1.122-0.451,2.038-0.984,2.736-1.591c-0.768-0.931-1.396-2.021-1.903-3.246
		l1.098-0.806c0.482,1.188,1.09,2.184,1.796,2.981l0.018-0.012c0.578-0.872,1.012-1.962,1.291-3.215h-4.525V181.487z"/>
	<path fill="#FFFFFF" d="M57.896,174.603c0.278,0.568,0.527,1.214,0.789,1.906h2.187v1.397h-5.768v-1.397h2.341
		c-0.235-0.595-0.496-1.179-0.806-1.716L57.896,174.603z M55.598,179.094h4.822v1.327h-4.822V179.094z M55.598,181.487h4.822v1.315
		h-4.822V181.487z M56.837,188.881v1.214H55.65v-6.109h4.658v5.841h-1.206v-0.945H56.837z M59.103,185.383h-2.266v2.12h2.266
		V185.383z M61.103,179.428h2.562v-4.825h1.309v4.825h2.57v1.529h-2.57v9.203h-1.309v-9.203h-2.562V179.428z"/>
	<path fill="#FFFFFF" d="M75.491,174.603l1.321,0.19c-0.112,0.521-0.265,1-0.458,1.467h1.719v5.297H74.67v1.704h3.67v6.49h-1.205
		v-0.984H74.67v1.059H73.46V176.26h1.591C75.25,175.735,75.409,175.172,75.491,174.603 M74.67,180.16h2.2v-2.521h-2.2V180.16z
		 M74.67,187.363h2.465v-2.717H74.67V187.363z M78.548,175.331h6.827v1.51H82.63v1.802H85v8.67c0,0.428-0.091,0.794-0.285,1.105
		c-0.169,0.269-0.441,0.404-0.774,0.404h-0.733l-0.303-1.58l0.683,0.07c0.16,0,0.257-0.155,0.257-0.475v-6.744H82.63v10.067h-1.246
		v-10.067h-1.211v8.787h-1.16v-10.238h2.371v-1.802h-2.836V175.331z"/>
	<path fill="#FFFFFF" d="M90.96,178.709h1.257v-3.985h1.257v3.985h1.373v1.455h-1.373v9.927h-1.257v-9.927H90.96V178.709z
		 M94.213,182.534h1.277c0.027-0.397,0.042-0.813,0.042-1.253h1.137c-0.01,0.455-0.021,0.871-0.032,1.253h1.825
		c-0.027,3.906-0.181,6.137-0.49,6.689c-0.167,0.486-0.747,0.731-1.717,0.731L96,188.363c0.386,0.098,0.695,0.132,0.937,0.132
		c0.139,0,0.238-0.14,0.303-0.439c0.065-0.3,0.105-1.673,0.125-4.129h-0.819c-0.099,1.223-0.237,2.18-0.41,2.876
		c-0.337,1.241-0.898,2.304-1.656,3.222l-0.792-1.257c0.666-0.771,1.127-1.622,1.378-2.553c0.154-0.533,0.264-1.3,0.353-2.288
		h-1.205V182.534z M95.321,176.109h2.913c0.014-0.187,0.032-0.382,0.032-0.584v-0.918h1.238v0.918c0,0.202-0.006,0.397-0.033,0.584
		h3.499c-0.086,2.413-0.264,3.825-0.519,4.245c-0.272,0.401-0.869,0.604-1.795,0.604c-0.673,0-1.158-0.023-1.456-0.07l-0.269-1.385
		c0.567,0.081,1.147,0.116,1.725,0.116c0.442,0,0.703-0.116,0.808-0.338c0.119-0.148,0.188-0.752,0.205-1.782h-2.405
		c-0.167,0.657-0.411,1.229-0.749,1.7c-0.592,0.849-1.561,1.494-2.889,1.945l-0.681-1.385c1.276-0.421,2.135-0.946,2.589-1.584
		c0.15-0.21,0.271-0.439,0.354-0.677h-2.567V176.109z M98.786,182.534h1.197c0.028-0.413,0.038-0.856,0.042-1.315h1.164
		c-0.012,0.475-0.022,0.914-0.044,1.315h2.096c-0.023,3.906-0.208,6.137-0.548,6.689c-0.195,0.486-0.834,0.731-1.915,0.731
		l-0.211-1.533c0.361,0.101,0.654,0.144,0.88,0.144c0.205,0,0.351-0.144,0.458-0.459c0.09-0.296,0.154-1.708,0.177-4.18h-1.02
		c-0.093,1.199-0.2,2.145-0.367,2.86c-0.305,1.237-0.825,2.304-1.564,3.237l-0.778-1.257c0.62-0.771,1.031-1.622,1.263-2.576
		c0.135-0.529,0.229-1.284,0.312-2.265h-1.142V182.534z"/>
	<path fill="#FFFFFF" d="M115.136,174.662h0.607c1.644,1.233,3.505,2.365,5.617,3.381l-0.519,1.521
		c-0.149-0.073-0.293-0.147-0.422-0.237v4.339h-10.428v-4.339c-0.148,0.094-0.321,0.172-0.464,0.237l-0.542-1.455
		c1.932-0.887,3.765-2.035,5.514-3.447H115.136z M119.846,184.389v5.771h-1.265v-0.553h-6.749v0.6h-1.265v-5.818H119.846z
		 M110.672,178.958h9.087c-0.779-0.451-1.516-0.903-2.171-1.331v0.665h-4.762v-0.685
		C112.067,178.129,111.353,178.588,110.672,178.958 M114.562,182.468v-2.308h-3.417v2.308h1.681
		c-0.217-0.471-0.472-0.992-0.804-1.58l0.753-0.591c0.42,0.591,0.761,1.089,0.982,1.514l-0.728,0.657H114.562z M111.832,186.514
		h6.747v-0.934h-6.747V186.514z M111.832,188.495h6.747v-0.992h-6.747V188.495z M113.41,177.176h3.524
		c-0.681-0.443-1.269-0.892-1.799-1.312C114.53,176.343,113.956,176.786,113.41,177.176 M119.271,182.468v-2.308h-3.528v2.308h1.712
		l-0.813-0.731c0.313-0.42,0.595-0.896,0.836-1.439l0.849,0.459c-0.228,0.669-0.477,1.237-0.753,1.712H119.271z"/>
	<polygon fill-rule="evenodd" clip-rule="evenodd" fill="#FFFFFF" points="4.574,133.059 4.574,147.936 21.85,147.936 
		21.85,133.059 24.622,133.059 24.622,166.345 21.85,166.345 21.85,150.419 4.574,150.419 4.574,166.345 1.809,166.345 
		1.809,133.059 	"/>
	<path fill-rule="evenodd" clip-rule="evenodd" fill="#FFFFFF" d="M66.248,163.855h3.329c9.886,0,16.548-3.439,16.548-14.397
		c0-10.896-6.544-13.947-14.384-13.947h-5.493V163.855z M72.408,133.059c11.853,0,16.469,6.794,16.469,16.593
		c0,12.04-7.856,16.693-18.965,16.693h-6.456v-33.286H72.408z"/>
	<polygon fill="#FFFFFF" points="34.986,133.059 37.218,133.059 37.218,166.345 34.435,166.345 34.435,133.059 	"/>
	<polygon fill-rule="evenodd" clip-rule="evenodd" fill="#FFFFFF" points="53.372,133.059 56.959,133.059 40.781,148.815 
		58.404,166.345 54.526,166.345 37.217,148.839 	"/>
	<path fill="#FFFFFF" d="M108.254,133.083l13.422,33.263h-2.728l-4.158-10.265H98.236l-4.066,10.265h-2.825l13.419-33.263H108.254z
		 M113.743,153.52l-7.234-17.885l-7.241,17.885H113.743z"/>
</g>
</svg>
