<?xml version="1.0" encoding="utf-8"?>
<!-- Generator: Adobe Illustrator 15.1.0, SVG Export Plug-In . SVG Version: 6.00 Build 0)  -->
<svg version="1.2" baseProfile="tiny" id="Layer_1" xmlns="http://www.w3.org/2000/svg" xmlns:xlink="http://www.w3.org/1999/xlink"
	 x="0px" y="0px" width="125px" height="195.891px" viewBox="0 0 125 195.891" overflow="inherit" xml:space="preserve">
<g>
	<g>
		<path fill="#575756" d="M107.868,63.343L118.426,52.8c0.193,1.101,0.357,2.214,0.494,3.339l-7.183,7.188l7.198,7.194
			c-0.143,1.125-0.309,2.239-0.509,3.355L107.868,63.343z"/>
		<path fill="#575756" d="M95.698,63.343l20.113-20.117c0.349,0.941,0.664,1.902,0.975,2.872L99.549,63.326l17.237,17.232
			c-0.297,0.976-0.614,1.943-0.975,2.886L95.698,63.343z"/>
		<path fill="#575756" d="M83.498,63.343l28.462-28.466c0.459,0.827,0.923,1.663,1.335,2.516l-25.93,25.935l25.945,25.944
			c-0.428,0.858-0.884,1.696-1.339,2.524L83.498,63.343z"/>
		<path fill="#575756" d="M71.309,63.343l35.798-35.786c0.554,0.717,1.107,1.459,1.638,2.206L75.163,63.326l33.587,33.577
			c-0.527,0.752-1.077,1.503-1.644,2.227L71.309,63.343z"/>
		<path fill="#575756" d="M122.099,124.388H0V2.278h122.099V124.388z M2.748,6.96v55H57.73L2.748,6.96z M59.696,60.04V5.038H4.688
			L59.696,60.04z M59.696,64.71H2.748v56.935h56.948V64.71z M62.984,63.343l56.387,56.377V6.96L62.984,63.343z M62.43,115.413v6.23
			h54.999L62.426,66.655l0.003,8.303l34.417,34.42c-0.724,0.567-1.461,1.119-2.213,1.646l-32.207-32.19v8.319l27.096,27.095
			c-0.825,0.471-1.672,0.91-2.539,1.336L62.426,91.026l0.003,8.323l18.735,18.74c-0.955,0.349-1.916,0.681-2.89,0.984L62.43,103.216
			v8.314l9.165,9.176c-1.104,0.193-2.238,0.371-3.357,0.519L62.43,115.413z M62.43,51.681l-0.003,8.354l55.002-54.996H62.43v6.228
			l5.788-5.79c1.131,0.129,2.229,0.297,3.347,0.497l-9.139,9.136l0.003,8.342L78.264,7.616c0.972,0.297,1.941,0.627,2.886,0.969
			L62.43,27.307v8.339L86.98,11.1c0.856,0.417,1.686,0.861,2.514,1.322L62.426,39.491l0.003,8.352l32.188-32.196
			c0.749,0.538,1.48,1.088,2.213,1.644L62.43,51.681z"/>
		<path fill="#575756" d="M10.97,179.394l0.648,1.422c-1.311,0.278-2.835,0.494-4.574,0.637v1.486h5.699v1.428h-4.16
			c0.499,0.566,0.962,0.965,1.387,1.219c0.68,0.467,1.619,0.918,2.836,1.365l-0.594,1.557c-0.431-0.188-0.827-0.391-1.173-0.59
			v7.381H9.782V194.5H3.146v0.799H1.904v-7.344c-0.356,0.209-0.723,0.416-1.119,0.621l-0.742-1.562
			c1.533-0.634,2.618-1.229,3.243-1.753c0.333-0.256,0.628-0.551,0.9-0.895H0.188v-1.428h5.558v-1.412
			c-1.354,0.067-2.805,0.119-4.37,0.119L1,180.147C4.92,180.147,8.234,179.89,10.97,179.394 M2.644,187.483h3.102v-3.117H5.637
			c-0.401,0.717-0.856,1.33-1.354,1.824C3.83,186.628,3.286,187.06,2.644,187.483 M3.146,190.196h6.635v-1.211H3.146V190.196z
			 M3.146,193.071h6.635v-1.428H3.146V193.071z M7.044,187.483h3.249c-0.56-0.332-1.026-0.664-1.391-0.996
			c-0.56-0.447-1.141-1.156-1.734-2.121H7.044V187.483z"/>
		<path fill="#575756" d="M19.243,183.548c0.809,0.482,1.561,1.041,2.225,1.697l-0.822,1.562c-0.677-0.839-1.379-1.492-2.089-1.964
			L19.243,183.548z M20.437,187.771l0.646,0.604c0.969-0.631,1.661-1.209,2.062-1.727c0.218-0.271,0.421-0.57,0.615-0.926h-2.149
			v-1.429h2.014v-1.701h-1.672v-1.424h1.672v-1.776h1.287v1.776h2.525v-1.776h1.237v1.776h2.104v1.424h-2.104v1.701h2.437v1.429
			h-2.585c0.312,0.502,0.609,0.868,0.887,1.096c0.43,0.438,1.065,0.861,1.852,1.272l-0.55,1.494
			c-0.821-0.514-1.466-0.983-1.927-1.436v3.492h-4.414v1.291c0,0.368,0.162,0.536,0.479,0.536h3.822
			c0.269,0,0.468-0.073,0.575-0.223c0.141-0.162,0.249-0.904,0.299-2.229l1.167,0.483c-0.113,1.676-0.311,2.656-0.584,2.938
			c-0.237,0.312-0.664,0.463-1.293,0.463h-4.464c-0.378,0-0.683-0.135-0.911-0.404c-0.214-0.279-0.332-0.647-0.332-1.096v-4.701
			c-0.417,0.414-0.903,0.818-1.457,1.242l-0.276-0.594c-0.526,2.293-1.086,4.299-1.714,6.02l-1.037-1.436
			C19.229,192.487,19.814,190.438,20.437,187.771 M19.798,179.462c0.758,0.443,1.461,0.961,2.099,1.57l-0.814,1.562
			c-0.646-0.774-1.313-1.393-1.993-1.831L19.798,179.462z M24.358,187.228h3.633c-0.284-0.394-0.568-0.9-0.859-1.504h-2.045
			C24.854,186.296,24.618,186.796,24.358,187.228 M24.375,190.265h3.173v-1.689h-3.173V190.265z M24.913,184.296h2.525v-1.709
			h-2.525V184.296z"/>
		<path fill="#575756" d="M39.826,179.269c0.208,0.582,0.406,1.241,0.569,1.973h1.947v1.42H37.12v-1.42h2.018
			c-0.177-0.637-0.386-1.227-0.606-1.779L39.826,179.269z M41.808,188.911v5.023h-3.01v1.25h-1.234v-6.273H41.808z M37.623,183.813
			h4.185v1.35h-4.185V183.813z M37.623,186.337h4.185v1.354h-4.185V186.337z M38.798,192.519h1.762v-2.181h-1.762V192.519z
			 M48.02,179.735v4.006c0,0.416,0.155,0.625,0.486,0.625h1.075v1.551h-1.356c-0.515,0-0.92-0.139-1.169-0.416
			c-0.262-0.268-0.389-0.733-0.389-1.399v-2.931h-2.105c-0.031,1.154-0.124,1.982-0.268,2.484c-0.162,0.695-0.583,1.486-1.296,2.408
			l-0.964-1.088c0.557-0.795,0.93-1.429,1.063-1.898c0.123-0.426,0.187-1.535,0.187-3.342H48.02z M42.556,186.337h6v1.146
			c-0.342,1.781-0.896,3.295-1.704,4.537c0.774,0.625,1.748,1.143,2.927,1.59l-0.807,1.498c-1.298-0.578-2.323-1.197-3.077-1.859
			c-0.776,0.765-1.812,1.418-3.099,1.998l-0.766-1.428c1.152-0.463,2.095-1.012,2.811-1.637c-0.787-0.957-1.432-2.076-1.954-3.339
			l1.126-0.821c0.496,1.221,1.119,2.242,1.844,3.061l0.018-0.012c0.594-0.896,1.04-2.014,1.327-3.301h-4.648v-1.434H42.556z"/>
		<path fill="#575756" d="M58.446,179.269c0.286,0.582,0.542,1.241,0.811,1.957h2.247v1.436h-5.926v-1.436h2.405
			c-0.241-0.611-0.509-1.211-0.825-1.765L58.446,179.269z M56.086,183.88h4.953v1.365h-4.953V183.88z M56.086,186.337h4.953v1.354
			h-4.953V186.337z M57.359,193.935v1.241h-1.221v-6.272h4.785v6h-1.237v-0.969H57.359z M59.687,190.339H57.36v2.181h2.327V190.339z
			 M61.741,184.226h2.632v-4.957h1.345v4.957h2.639v1.567h-2.639v9.453h-1.345v-9.453h-2.632V184.226z"/>
		<path fill="#575756" d="M76.521,179.269l1.356,0.192c-0.114,0.537-0.272,1.029-0.471,1.508h1.768v5.441h-3.496v1.752h3.77v6.668
			h-1.239v-1.012h-2.531v1.084h-1.243v-13.934h1.632C76.273,180.431,76.437,179.851,76.521,179.269 M75.678,184.976h2.259v-2.591
			h-2.259V184.976z M75.678,192.376h2.531v-2.789h-2.531V192.376z M79.661,180.015h7.015v1.549h-2.82v1.852h2.435v8.908
			c0,0.438-0.095,0.816-0.292,1.133c-0.174,0.279-0.455,0.416-0.797,0.416H84.45l-0.312-1.619l0.702,0.07
			c0.164,0,0.264-0.162,0.264-0.488v-6.93h-1.248v10.342h-1.28v-10.342h-1.244v9.029h-1.19v-10.521h2.435v-1.852h-2.915
			L79.661,180.015L79.661,180.015z"/>
		<path fill="#575756" d="M92.411,183.485h1.291v-4.092h1.292v4.092h1.41v1.49h-1.41v10.2h-1.292v-10.2h-1.291V183.485z
			 M95.752,187.413h1.312c0.029-0.404,0.044-0.834,0.044-1.287h1.169c-0.012,0.467-0.025,0.896-0.034,1.287h1.875
			c-0.028,4.014-0.185,6.307-0.503,6.873c-0.172,0.498-0.768,0.75-1.763,0.75l-0.262-1.633c0.396,0.096,0.713,0.135,0.96,0.135
			c0.145,0,0.247-0.143,0.313-0.451c0.067-0.311,0.108-1.721,0.129-4.242h-0.843c-0.101,1.257-0.243,2.238-0.421,2.953
			c-0.345,1.273-0.924,2.369-1.7,3.312l-0.815-1.289c0.684-0.791,1.159-1.668,1.416-2.627c0.158-0.545,0.271-1.332,0.362-2.349
			h-1.239V187.413z M96.891,180.815h2.992c0.014-0.195,0.033-0.394,0.033-0.603v-0.944h1.274v0.944c0,0.209-0.007,0.406-0.035,0.603
			h3.594c-0.088,2.479-0.271,3.928-0.532,4.36c-0.28,0.408-0.893,0.617-1.844,0.617c-0.693,0-1.189-0.022-1.495-0.069l-0.276-1.429
			c0.583,0.086,1.178,0.125,1.771,0.125c0.455,0,0.723-0.121,0.828-0.348c0.124-0.154,0.195-0.773,0.212-1.834h-2.47
			c-0.174,0.68-0.422,1.266-0.77,1.748c-0.607,0.871-1.603,1.535-2.969,1.998l-0.699-1.422c1.312-0.433,2.194-0.97,2.659-1.625
			c0.154-0.218,0.279-0.451,0.366-0.699h-2.639V180.815z M100.45,187.413h1.229c0.029-0.424,0.041-0.879,0.045-1.35h1.194
			c-0.012,0.485-0.021,0.938-0.044,1.35h2.153c-0.025,4.014-0.212,6.307-0.563,6.873c-0.201,0.498-0.857,0.75-1.968,0.75
			l-0.216-1.572c0.37,0.103,0.671,0.146,0.904,0.146c0.21,0,0.36-0.146,0.471-0.471c0.092-0.306,0.158-1.757,0.183-4.296h-1.049
			c-0.095,1.23-0.203,2.205-0.376,2.938c-0.312,1.273-0.847,2.369-1.605,3.326l-0.801-1.289c0.637-0.791,1.06-1.668,1.296-2.648
			c0.139-0.543,0.237-1.317,0.321-2.326h-1.173L100.45,187.413L100.45,187.413z"/>
		<path fill="#575756" d="M117.247,179.325h0.624c1.688,1.271,3.6,2.432,5.771,3.475l-0.533,1.566
			c-0.153-0.076-0.301-0.156-0.434-0.248v4.457H111.96v-4.457c-0.15,0.098-0.328,0.178-0.477,0.248l-0.555-1.498
			c1.985-0.91,3.868-2.09,5.664-3.543H117.247z M122.083,189.319v5.928h-1.299v-0.563h-6.931v0.614h-1.301v-5.979H122.083z
			 M112.661,183.741h9.336c-0.801-0.463-1.557-0.926-2.23-1.367v0.685h-4.892v-0.705
			C114.094,182.892,113.359,183.358,112.661,183.741 M116.656,187.344v-2.368h-3.51v2.368h1.728
			c-0.222-0.481-0.484-1.018-0.826-1.62l0.772-0.609c0.433,0.609,0.782,1.119,1.011,1.559l-0.749,0.673h1.574V187.344z
			 M113.854,191.503h6.931v-0.959h-6.931V191.503z M113.854,193.538h6.931v-1.02h-6.931V193.538z M115.474,181.911h3.62
			c-0.698-0.459-1.302-0.918-1.847-1.35C116.624,181.056,116.033,181.509,115.474,181.911 M121.495,187.344v-2.368h-3.625v2.368
			h1.757l-0.835-0.752c0.322-0.43,0.613-0.918,0.86-1.479l0.872,0.471c-0.234,0.688-0.49,1.273-0.773,1.76H121.495z"/>
		<polygon fill="#575756" points="3.671,136.593 3.671,151.872 21.417,151.872 21.417,136.593 24.264,136.593 24.264,170.784 
			21.417,170.784 21.417,154.423 3.671,154.423 3.671,170.784 0.83,170.784 0.83,136.593 		"/>
		<path fill="#575756" d="M67.025,168.226h3.421c10.154,0,16.999-3.531,16.999-14.791c0-11.193-6.724-14.326-14.776-14.326h-5.643
			L67.025,168.226L67.025,168.226z M73.354,136.593c12.175,0,16.917,6.98,16.917,17.043c0,12.367-8.07,17.148-19.482,17.148h-6.631
			v-34.191H73.354z"/>
		<polygon fill="#575756" points="34.913,136.593 37.205,136.593 37.205,170.784 34.345,170.784 34.345,136.593 		"/>
		<polygon fill="#575756" points="53.798,136.593 57.483,136.593 40.866,152.778 58.968,170.784 54.984,170.784 37.205,152.802 		
			"/>
		<path fill="#575756" d="M110.176,136.616l13.789,34.168h-2.802l-4.271-10.543H99.887l-4.178,10.543h-2.902l13.785-34.168H110.176z
			 M115.815,157.61l-7.432-18.375l-7.437,18.375H115.815z"/>
	</g>
</g>
</svg>
